<svg xmlns="http://www.w3.org/2000/svg" viewBox="0 0 1024 1024" role="img" aria-labelledby="title desc">
  <title id="title">Nocion VS Code Plugin Icon</title>
  <desc id="desc">A minimalist two-color icon: red-orange rounded square with a white lightbulb containing a simple brain shape.</desc>
  <rect width="1024" height="1024" rx="170" fill="#FF3B2F"/>
  <g fill="#FFFFFF">
    <!-- Lightbulb outline as solid ring using evenodd -->
    <path fill-rule="evenodd" d="M512 168c-177.7 0-322 144.3-322 322 0 97.6 43.7 185.1 112.5 244.1 28.6 24.5 47.5 57.6 54 94.4 4 23 23.9 39.7 47.2 39.7h208.6c23.3 0 43.2-16.7 47.2-39.7 6.5-36.8 25.4-69.9 54-94.4C782.3 675.1 826 587.6 826 490c0-177.7-144.3-322-322-322Zm0 72c137.9 0 250 112.1 250 250 0 75.6-33.8 143.4-87.1 189.1-39.8 34.1-66.3 80.3-75.8 131.1H424.9c-9.5-50.8-36-97-75.8-131.1C295.8 633.4 262 565.6 262 490c0-137.9 112.1-250 250-250Z"/>
    <!-- Bulb neck -->
    <rect x="363" y="853" width="298" height="45" rx="22.5"/>
    <rect x="386" y="920" width="252" height="42" rx="21"/>
    <!-- Simple brain / knowledge mark -->
    <path d="M480 330c-48 0-87 32-94 76-44 7-78 45-78 91 0 38 23 71 56 85-1 5-2 11-2 16 0 50 41 90 91 90h27V330Zm-17 72v43h-46c-20 0-36 16-36 36 0 10 4 19 10 25 7 7 7 18 0 25s-18 7-25 0c-13-13-21-31-21-50 0-39 32-72 72-72h20c6-18 23-31 43-31 10 0 18 8 18 18s-8 18-18 18c-10 0-18 8-18 18Zm0 118v41h-53c-10 0-18-8-18-18s8-18 18-18h53Zm0 77v36h-10c-30 0-54-24-54-54 0-10 8-18 18-18s18 8 18 18c0 10 8 18 18 18h10Z"/>
    <path d="M544 330c48 0 87 32 94 76 44 7 78 45 78 91 0 38-23 71-56 85 1 5 2 11 2 16 0 50-41 90-91 90h-27V330Zm17 72v43h46c20 0 36 16 36 36 0 10-4 19-10 25-7 7-7 18 0 25s18 7 25 0c13-13 21-31 21-50 0-39-32-72-72-72h-20c-6-18-23-31-43-31-10 0-18 8-18 18s8 18 18 18c10 0 18 8 18 18Zm0 118v41h53c10 0 18-8 18-18s-8-18-18-18h-53Zm0 77v36h10c30 0 54-24 54-54 0-10-8-18-18-18s-18 8-18 18c0 10-8 18-18 18h-10Z"/>
  </g>
</svg>
